<?xml version="1.0"?>
<svg width="277.446" height="277.446" xmlns="http://www.w3.org/2000/svg" xmlns:svg="http://www.w3.org/2000/svg" version="1.1" xml:space="preserve">
 <g class="layer">
  <title>Layer 1</title>
  <path d="m59.49,117.3c-0.51,-4.24 -2.01,-8.17 -4.27,-11.56l202.99,-67.77l-10.66,-31.92c-1.55,-4.64 -6.56,-7.14 -11.2,-5.59l-220.81,73.72c-4.64,1.55 -7.14,6.57 -5.59,11.2l5.22,15.65c-5.22,4.84 -8.49,11.75 -8.49,19.42c0,9.92 5.49,18.58 13.58,23.12l0,125.02c0,4.89 3.97,8.86 8.86,8.86l232.79,0c4.89,0 8.85,-3.97 8.85,-8.86l0,-151.29l-211.27,0zm129.38,-90.58l26.87,-8.97l-6.46,26.14l-26.88,8.97l6.47,-26.14zm-66.4,22.17l26.88,-8.97l-6.47,26.14l-26.88,8.97l6.47,-26.14zm-89.29,85.06c-7.44,0 -13.5,-6.06 -13.5,-13.5c0,-7.45 6.06,-13.5 13.5,-13.5c7.45,0 13.5,6.05 13.5,13.5c0,7.44 -6.05,13.5 -13.5,13.5zm22.89,-62.89l26.88,-8.97l-6.47,26.14l-26.87,8.97l6.46,-26.14zm26.41,76.13l-28.34,0l14.41,-22.74l28.34,0l-14.41,22.74zm56.07,-22.74l28.34,0l-14.41,22.74l-28.34,0l14.41,-22.74zm-6.95,109.92l0,-60l47.78,30l-47.78,30zm90.88,-87.18l-28.34,0l14.41,-22.74l28.34,0l-14.41,22.74z" fill="url(#svg_9)" id="_x30_6-Movie_Clapper"/>
 </g>
 <defs>
  <linearGradient id="svg_9" x1="0" x2="1" y1="0" y2="0">
   <stop id="jq_stop_9440" offset="0" stop-color="#bf00bf" stop-opacity="1"/>
   <stop id="jq_stop_5939" offset="1" stop-color="#05c4c4" stop-opacity="0.99"/>
  </linearGradient>
 </defs>
</svg>