<svg width="176" height="231" viewBox="0 0 176 231" fill="none" xmlns="http://www.w3.org/2000/svg">
<g clip-path="url(#clip0_37497_563)">
<rect y="-6" width="177" height="264" rx="5" fill="#C4C4C4"/>
<g opacity="0.5">
<ellipse cx="86.7364" cy="101.834" rx="14.3341" ry="14.3341" stroke="white" stroke-width="1.5" stroke-linecap="round" stroke-linejoin="round"/>
<path fill-rule="evenodd" clip-rule="evenodd" d="M64 136.104C63.9962 135.097 64.2216 134.101 64.6591 133.193C66.0321 130.447 69.9039 128.992 73.1168 128.333C75.4338 127.839 77.7829 127.508 80.1465 127.344C84.5225 126.96 88.9238 126.96 93.2998 127.344C95.6632 127.51 98.0122 127.84 100.33 128.333C103.542 128.992 107.414 130.31 108.787 133.193C109.667 135.044 109.667 137.192 108.787 139.042C107.414 141.926 103.542 143.244 100.33 143.875C98.0152 144.39 95.6653 144.73 93.2998 144.891C89.7381 145.193 86.1598 145.248 82.5904 145.056C81.7666 145.056 80.9703 145.056 80.1465 144.891C77.7899 144.732 75.449 144.392 73.1442 143.875C69.9039 143.244 66.0595 141.926 64.6591 139.042C64.2238 138.124 63.9987 137.12 64 136.104Z" stroke="white" stroke-width="1.5" stroke-linecap="round" stroke-linejoin="round"/>
</g>
</g>
<defs>
<clipPath id="clip0_37497_563">
<rect width="176" height="231" rx="5" fill="white"/>
</clipPath>
</defs>
</svg>
